<svg xmlns="http://www.w3.org/2000/svg" xmlns:xlink="http://www.w3.org/1999/xlink" width="860" height="250" viewBox="0 0 860 250" role="img" aria-label="Let’s make something useful — start a conversation"><title>Let’s make something useful — start a conversation</title><defs><filter id="shadow" x="-20%" y="-20%" width="140%" height="150%"><feDropShadow dx="0" dy="6" stdDeviation="10" flood-color="#000000" flood-opacity="0.14"/></filter></defs><rect x="1" y="1" width="858" height="248" fill="#31302E" rx="24" stroke="#575247" stroke-width="1" /><g fill="#A69F90"><path d="M114 461V979Q114 1119.2742857142857 175.5 1229.6371428571429Q237 1340 347.7274590163935 1402.5Q458.4549180327869 1465 600.2274590163935 1465Q742 1465 852.5 1402.5Q963 1340 1024.5 1229.6371428571429Q1086 1119.2742857142857 1086 979V461Q1086 320.7257142857143 1024.5 210.36285714285714Q963 100 852.2725409836066 37.5Q741.5450819672132 -25 599.7725409836065 -25Q458 -25 347.5 37.5Q237 100 175.5 210.36285714285714Q114 320.7257142857143 114 461ZM818 458V983Q818 1054 791.5967302452316 1106.4571428571428Q765.1934604904632 1158.9142857142856 715.8814713896458 1187.4571428571428Q666.5694822888283 1216 599.7847411444142 1216Q533 1216 483.8282051282051 1187.4571428571428Q434.65641025641025 1158.9142857142856 408.3282051282051 1106.4571428571428Q382 1054 382 983V458Q382 387.04405286343615 408.5 334.0220264317181Q435 281 484.0 252.5Q533 224 599.7847411444142 224Q666.5694822888283 224 715.8814713896458 252.71904761904761Q765.1934604904632 281.43809523809523 791.5967302452316 334.2190476190476Q818 387 818 458Z" transform="translate(53.459 38.790) scale(0.004750 -0.004750)"/><path d="M1092 1013.0571428571428Q1092 887.1142857142858 1037.8492647058824 790.5580952380952Q983.6985294117648 694.0019047619047 886.4375 641.0009523809524Q789.1764705882352 588 663 588H331V830H634Q690 830 731.6196319018404 852.3841201716739Q773.239263803681 874.7682403433477 795.6196319018404 916.0021459227468Q818 957.2360515021459 818 1013Q818 1069 795.6196319018404 1110.6196319018404Q773.239263803681 1152.239263803681 731.6196319018404 1174.6196319018404Q690 1197 634 1197H440L470 1227V0H203V1440H663.2624113475177Q789.3617021276596 1440 886.5632387706855 1386.6649122807016Q983.7647754137116 1333.3298245614035 1037.8823877068558 1236.1649122807016Q1092 1139 1092 1013.0571428571428Z" transform="translate(60.858 38.790) scale(0.004750 -0.004750)"/><path d="M1026 1440V1197H420L450 1227V213L420 243H1046V0H183V1440ZM926 863V620H312V863Z" transform="translate(68.258 38.790) scale(0.004750 -0.004750)"/><path d="M143 1440H423L936 308H825V1440H1057V0H808L295 1132H375V0H143Z" transform="translate(75.659 38.790) scale(0.004750 -0.004750)"/><path d="" transform="translate(83.059 38.790) scale(0.004750 -0.004750)"/><path d="M600 202Q664 202 712.0 227.0Q760 252 786.5 297.5Q813 343 813 403Q813 468 789.0 511.0Q765 554 709.5 583.5Q654 613 555 635Q346 678 248.0 781.0Q150 884 150 1045Q150 1166 207.0 1261.5Q264 1357 366.5 1411.0Q469 1465 600 1465Q730 1465 831.0 1412.5Q932 1360 989.5 1264.5Q1047 1169 1050 1046H795Q792 1106 767.5 1149.0Q743 1192 700.0 1215.0Q657 1238 600 1238Q545 1238 501.0 1215.0Q457 1192 432.0 1151.5Q407 1111 407 1062Q407 1011 428.5 975.5Q450 940 502.0 914.5Q554 889 646 869Q798 837 892.0 778.5Q986 720 1029.0 633.5Q1072 547 1072 427Q1072 295 1013.5 192.5Q955 90 847.5 32.5Q740 -25 600 -25Q454 -25 348.0 33.0Q242 91 185.5 199.0Q129 307 128 454H384Q385 326 441.5 264.0Q498 202 600 202Z" transform="translate(90.459 38.790) scale(0.004750 -0.004750)"/><path d="M114 461V979Q114 1119.2742857142857 175.5 1229.6371428571429Q237 1340 347.7274590163935 1402.5Q458.4549180327869 1465 600.2274590163935 1465Q742 1465 852.5 1402.5Q963 1340 1024.5 1229.6371428571429Q1086 1119.2742857142857 1086 979V461Q1086 320.7257142857143 1024.5 210.36285714285714Q963 100 852.2725409836066 37.5Q741.5450819672132 -25 599.7725409836065 -25Q458 -25 347.5 37.5Q237 100 175.5 210.36285714285714Q114 320.7257142857143 114 461ZM818 458V983Q818 1054 791.5967302452316 1106.4571428571428Q765.1934604904632 1158.9142857142856 715.8814713896458 1187.4571428571428Q666.5694822888283 1216 599.7847411444142 1216Q533 1216 483.8282051282051 1187.4571428571428Q434.65641025641025 1158.9142857142856 408.3282051282051 1106.4571428571428Q382 1054 382 983V458Q382 387.04405286343615 408.5 334.0220264317181Q435 281 484.0 252.5Q533 224 599.7847411444142 224Q666.5694822888283 224 715.8814713896458 252.71904761904761Q765.1934604904632 281.43809523809523 791.5967302452316 334.2190476190476Q818 387 818 458Z" transform="translate(97.858 38.790) scale(0.004750 -0.004750)"/><path d="M400 1440V433Q400 369 426.5 322.0Q453 275 500.0 249.5Q547 224 607 224Q667 224 714.0 249.5Q761 275 787.5 322.0Q814 369 814 433V1440H1067V448Q1067 304 1008.5 197.0Q950 90 844.0 32.5Q738 -25 600 -25Q462 -25 356.0 32.5Q250 90 191.5 197.0Q133 304 133 448V1440Z" transform="translate(105.258 38.790) scale(0.004750 -0.004750)"/><path d="M177 1440H654Q777.3030303030303 1440 872.1515151515151 1388.0Q967 1336 1019.5 1241.5Q1072 1147 1072 1024Q1072 901 1019.5 807.5Q967 714 872.1515151515151 662.0Q777.3030303030303 610 654 610H317V852H625Q677.556886227545 852 716.7784431137725 873.0Q756 894 777.0 933.077380952381Q798 972.1547619047619 798 1024Q798 1076.556886227545 777.0 1115.7784431137725Q756 1155 716.7784431137725 1176.0Q677.556886227545 1197 625 1197H415L445 1227V0H177ZM1107 0H816L545 731H809Z" transform="translate(112.659 38.790) scale(0.004750 -0.004750)"/><path d="M620 -25Q478 -25 367.5 37.0Q257 99 195.5 209.5Q134 320 134 461V979Q134 1120 195.5 1230.5Q257 1341 367.5 1403.0Q478 1465 620 1465Q764 1465 869.0 1407.0Q974 1349 1032.5 1241.0Q1091 1133 1096 986H829Q827 1059 801.5 1110.5Q776 1162 730.0 1189.0Q684 1216 620 1216Q553 1216 504.0 1187.5Q455 1159 428.5 1106.5Q402 1054 402 983V458Q402 387 428.5 334.0Q455 281 504.5 252.5Q554 224 620 224Q684 224 730.0 251.0Q776 278 801.5 329.5Q827 381 829 454H1096Q1091 307 1032.5 199.0Q974 91 869.0 33.0Q764 -25 620 -25Z" transform="translate(120.058 38.790) scale(0.004750 -0.004750)"/><path d="M1026 1440V1197H420L450 1227V213L420 243H1046V0H183V1440ZM926 863V620H312V863Z" transform="translate(127.459 38.790) scale(0.004750 -0.004750)"/><path d="" transform="translate(134.858 38.790) scale(0.004750 -0.004750)"/><path d="M346 -312H78L854 1640H1122Z" transform="translate(142.258 38.790) scale(0.004750 -0.004750)"/><path d="" transform="translate(149.659 38.790) scale(0.004750 -0.004750)"/><path d="M620 -25Q478 -25 367.5 37.0Q257 99 195.5 209.5Q134 320 134 461V979Q134 1120 195.5 1230.5Q257 1341 367.5 1403.0Q478 1465 620 1465Q764 1465 869.0 1407.0Q974 1349 1032.5 1241.0Q1091 1133 1096 986H829Q827 1059 801.5 1110.5Q776 1162 730.0 1189.0Q684 1216 620 1216Q553 1216 504.0 1187.5Q455 1159 428.5 1106.5Q402 1054 402 983V458Q402 387 428.5 334.0Q455 281 504.5 252.5Q554 224 620 224Q684 224 730.0 251.0Q776 278 801.5 329.5Q827 381 829 454H1096Q1091 307 1032.5 199.0Q974 91 869.0 33.0Q764 -25 620 -25Z" transform="translate(157.058 38.790) scale(0.004750 -0.004750)"/><path d="M114 461V979Q114 1119.2742857142857 175.5 1229.6371428571429Q237 1340 347.7274590163935 1402.5Q458.4549180327869 1465 600.2274590163935 1465Q742 1465 852.5 1402.5Q963 1340 1024.5 1229.6371428571429Q1086 1119.2742857142857 1086 979V461Q1086 320.7257142857143 1024.5 210.36285714285714Q963 100 852.2725409836066 37.5Q741.5450819672132 -25 599.7725409836065 -25Q458 -25 347.5 37.5Q237 100 175.5 210.36285714285714Q114 320.7257142857143 114 461ZM818 458V983Q818 1054 791.5967302452316 1106.4571428571428Q765.1934604904632 1158.9142857142856 715.8814713896458 1187.4571428571428Q666.5694822888283 1216 599.7847411444142 1216Q533 1216 483.8282051282051 1187.4571428571428Q434.65641025641025 1158.9142857142856 408.3282051282051 1106.4571428571428Q382 1054 382 983V458Q382 387.04405286343615 408.5 334.0220264317181Q435 281 484.0 252.5Q533 224 599.7847411444142 224Q666.5694822888283 224 715.8814713896458 252.71904761904761Q765.1934604904632 281.43809523809523 791.5967302452316 334.2190476190476Q818 387 818 458Z" transform="translate(164.459 38.790) scale(0.004750 -0.004750)"/><path d="M490 213 460 243H1076V0H223V1440H490Z" transform="translate(171.858 38.790) scale(0.004750 -0.004750)"/><path d="M490 213 460 243H1076V0H223V1440H490Z" transform="translate(179.258 38.790) scale(0.004750 -0.004750)"/><path d="M797 1440 1131 0H848L576 1260H608L336 0H69L403 1440ZM851 602 900 359H295L344 602Z" transform="translate(186.659 38.790) scale(0.004750 -0.004750)"/><path d="M1066 1051.5026455026455Q1066 979 1034.5 911.0Q1003 843 948.0 795.0Q893 747 826 731H300V863H631Q678.4810126582279 863 715.2405063291139 884.0Q752 905 772.5 942.2920353982302Q793 979.5840707964602 793 1027.5309734513273Q793 1077 773.1806930693069 1115.4905660377358Q753.3613861386139 1153.9811320754718 717.6089108910892 1175.4905660377358Q681.8564356435644 1197 636 1197H400L430 1227V213L400 243H628Q682.9717514124294 243 724.9858757062148 267.0Q767 291 790.0 334.5080213903743Q813 378.01604278074865 813 435Q813 487.8342857142857 789.0 530.4171428571428Q765 573 722.8764367816092 596.5Q680.7528735632184 620 628 620H300V765H790Q879 750 946.0 702.0Q1013 654 1049.5 580.0Q1086 506 1086 415Q1086 286 1031.734899328859 192.51943462897526Q977.4697986577181 99.03886925795052 874.734899328859 49.51943462897526Q772 0 629 0H163V1440H636Q767.8770226537217 1440 864.9385113268609 1393.5Q962 1347 1014.0 1259.5Q1066 1172 1066 1051.5026455026455Z" transform="translate(194.058 38.790) scale(0.004750 -0.004750)"/><path d="M114 461V979Q114 1119.2742857142857 175.5 1229.6371428571429Q237 1340 347.7274590163935 1402.5Q458.4549180327869 1465 600.2274590163935 1465Q742 1465 852.5 1402.5Q963 1340 1024.5 1229.6371428571429Q1086 1119.2742857142857 1086 979V461Q1086 320.7257142857143 1024.5 210.36285714285714Q963 100 852.2725409836066 37.5Q741.5450819672132 -25 599.7725409836065 -25Q458 -25 347.5 37.5Q237 100 175.5 210.36285714285714Q114 320.7257142857143 114 461ZM818 458V983Q818 1054 791.5967302452316 1106.4571428571428Q765.1934604904632 1158.9142857142856 715.8814713896458 1187.4571428571428Q666.5694822888283 1216 599.7847411444142 1216Q533 1216 483.8282051282051 1187.4571428571428Q434.65641025641025 1158.9142857142856 408.3282051282051 1106.4571428571428Q382 1054 382 983V458Q382 387.04405286343615 408.5 334.0220264317181Q435 281 484.0 252.5Q533 224 599.7847411444142 224Q666.5694822888283 224 715.8814713896458 252.71904761904761Q765.1934604904632 281.43809523809523 791.5967302452316 334.2190476190476Q818 387 818 458Z" transform="translate(201.459 38.790) scale(0.004750 -0.004750)"/><path d="M177 1440H654Q777.3030303030303 1440 872.1515151515151 1388.0Q967 1336 1019.5 1241.5Q1072 1147 1072 1024Q1072 901 1019.5 807.5Q967 714 872.1515151515151 662.0Q777.3030303030303 610 654 610H317V852H625Q677.556886227545 852 716.7784431137725 873.0Q756 894 777.0 933.077380952381Q798 972.1547619047619 798 1024Q798 1076.556886227545 777.0 1115.7784431137725Q756 1155 716.7784431137725 1176.0Q677.556886227545 1197 625 1197H415L445 1227V0H177ZM1107 0H816L545 731H809Z" transform="translate(208.858 38.790) scale(0.004750 -0.004750)"/><path d="M797 1440 1131 0H848L576 1260H608L336 0H69L403 1440ZM851 602 900 359H295L344 602Z" transform="translate(216.258 38.790) scale(0.004750 -0.004750)"/><path d="M735 0H467V1235L505 1197H114V1440H1086V1197H695L735 1235Z" transform="translate(223.659 38.790) scale(0.004750 -0.004750)"/><path d="M1006 1197H194V1440H1006ZM734 100H466V1340H734ZM1006 0H194V243H1006Z" transform="translate(231.058 38.790) scale(0.004750 -0.004750)"/><path d="M114 461V979Q114 1119.2742857142857 175.5 1229.6371428571429Q237 1340 347.7274590163935 1402.5Q458.4549180327869 1465 600.2274590163935 1465Q742 1465 852.5 1402.5Q963 1340 1024.5 1229.6371428571429Q1086 1119.2742857142857 1086 979V461Q1086 320.7257142857143 1024.5 210.36285714285714Q963 100 852.2725409836066 37.5Q741.5450819672132 -25 599.7725409836065 -25Q458 -25 347.5 37.5Q237 100 175.5 210.36285714285714Q114 320.7257142857143 114 461ZM818 458V983Q818 1054 791.5967302452316 1106.4571428571428Q765.1934604904632 1158.9142857142856 715.8814713896458 1187.4571428571428Q666.5694822888283 1216 599.7847411444142 1216Q533 1216 483.8282051282051 1187.4571428571428Q434.65641025641025 1158.9142857142856 408.3282051282051 1106.4571428571428Q382 1054 382 983V458Q382 387.04405286343615 408.5 334.0220264317181Q435 281 484.0 252.5Q533 224 599.7847411444142 224Q666.5694822888283 224 715.8814713896458 252.71904761904761Q765.1934604904632 281.43809523809523 791.5967302452316 334.2190476190476Q818 387 818 458Z" transform="translate(238.459 38.790) scale(0.004750 -0.004750)"/><path d="M143 1440H423L936 308H825V1440H1057V0H808L295 1132H375V0H143Z" transform="translate(245.858 38.790) scale(0.004750 -0.004750)"/></g><g fill="#CEC6B1"><path d="M208 235V1265Q208 1323 192.0 1355.0Q176 1387 139.0 1402.0Q102 1417 32 1422V1500H597V1422Q528 1417 490.5 1401.5Q453 1386 437.0 1354.0Q421 1322 421 1265V276Q421 211 445.5 173.0Q470 135 525.0 118.0Q580 101 674 101H796Q892 101 963.5 134.0Q1035 167 1092.5 238.5Q1150 310 1202 430H1281L1205 0H32V78Q102 83 139.0 98.0Q176 113 192.0 145.0Q208 177 208 235Z" transform="translate(53.296 100.440) scale(0.022000 -0.022000)"/><path d="M569 -20Q415 -20 297.0 43.5Q179 107 114.0 221.0Q49 335 49 483Q49 636 118.5 763.0Q188 890 308.0 963.5Q428 1037 571 1037Q694 1037 787.0 985.5Q880 934 931.0 840.5Q982 747 982 623V567H212V651L813 665L782 627Q782 726 754.5 797.0Q727 868 675.0 905.0Q623 942 550 942Q459 942 390.0 892.5Q321 843 283.5 753.5Q246 664 246 549Q246 421 290.5 330.0Q335 239 419.5 191.0Q504 143 622 143Q713 143 792.5 181.0Q872 219 939 286L993 232Q920 107 814.5 43.5Q709 -20 569 -20Z" transform="translate(82.358 100.440) scale(0.022000 -0.022000)"/><path d="M299 1222H382V878H23V953Q100 978 148.5 1009.5Q197 1041 231.5 1090.5Q266 1140 299 1222ZM661 92V18Q608 -1 555.5 -10.5Q503 -20 456 -20Q328 -20 257.0 48.5Q186 117 186 243V949H382V259Q382 205 410.5 170.0Q439 135 500.0 116.5Q561 98 661 92ZM645 878H315V1017H645Z" transform="translate(105.260 100.440) scale(0.022000 -0.022000)"/><path d="M291 1333H313Q313 1291 286.5 1265.5Q260 1240 215 1240Q177 1240 145.0 1259.0Q113 1278 94.0 1310.0Q75 1342 75 1380Q75 1418 94.0 1450.0Q113 1482 145.0 1501.0Q177 1520 215 1520Q261 1520 297.5 1496.0Q334 1472 354.5 1429.0Q375 1386 375 1333Q375 1243 337.5 1169.5Q300 1096 232.5 1047.5Q165 999 75 981V1067Q142 1084 190.5 1120.5Q239 1157 265.0 1211.0Q291 1265 291 1333Z" transform="translate(120.352 100.440) scale(0.022000 -0.022000)"/><path d="M446 68Q516 68 567.0 89.5Q618 111 645.5 150.5Q673 190 673 244Q673 302 641.0 338.5Q609 375 560.5 394.0Q512 413 439 431Q420 436 400 440Q272 471 202.0 507.5Q132 544 102.0 596.5Q72 649 72 732Q72 816 123.5 886.0Q175 956 264.0 996.5Q353 1037 460 1037Q562 1037 642.5 1015.0Q723 993 805 943V734H705Q675 841 612.5 895.0Q550 949 451 949Q392 949 346.0 929.5Q300 910 274.5 875.0Q249 840 249 795Q249 741 280.0 709.0Q311 677 358.5 660.5Q406 644 500 621Q635 588 711.5 547.5Q788 507 821.5 448.5Q855 390 855 301Q855 206 802.0 133.5Q749 61 653.5 20.5Q558 -20 433 -20Q332 -20 232.0 9.5Q132 39 61 89V315H161Q192 190 261.5 129.0Q331 68 446 68Z" transform="translate(127.172 100.440) scale(0.022000 -0.022000)"/><path d="" transform="translate(147.104 100.440) scale(0.022000 -0.022000)"/><path d="M392 1037 329 776 33 878V935L329 1037ZM196 179V904L392 1037V179Q392 145 407.0 125.0Q422 105 456.5 93.5Q491 82 555 75V0H33V75Q97 82 131.5 93.5Q166 105 181.0 125.0Q196 145 196 179ZM861 179V699Q861 793 813.0 839.0Q765 885 666 885Q611 885 547.5 862.0Q484 839 425.0 799.0Q366 759 325 710V783Q375 857 446.5 914.5Q518 972 597.5 1004.5Q677 1037 751 1037Q901 1037 979.5 960.0Q1058 883 1058 735V179Q1058 145 1073.0 125.0Q1088 105 1122.5 93.5Q1157 82 1221 75V0H699V75Q762 82 797.0 93.5Q832 105 846.5 125.0Q861 145 861 179ZM1527 179V699Q1527 793 1479.0 839.0Q1431 885 1332 885Q1277 885 1213.5 862.0Q1150 839 1091.0 799.0Q1032 759 991 710V783Q1041 857 1112.5 914.5Q1184 972 1263.5 1004.5Q1343 1037 1417 1037Q1566 1037 1645.0 960.0Q1724 883 1724 735V179Q1724 145 1739.0 125.0Q1754 105 1788.5 93.5Q1823 82 1887 75V0H1365V75Q1428 82 1463.0 93.5Q1498 105 1512.5 125.0Q1527 145 1527 179Z" transform="translate(154.144 100.440) scale(0.022000 -0.022000)"/><path d="M917 -18Q817 -18 762.5 36.5Q708 91 708 190V727Q708 842 654.5 900.5Q601 959 494 959Q399 959 346.0 904.0Q293 849 293 747V678H161Q134 694 119.5 722.0Q105 750 105 785Q105 855 158.0 913.0Q211 971 301.5 1004.0Q392 1037 499 1037Q629 1037 719.5 996.0Q810 955 857.0 875.0Q904 795 904 680V192Q904 157 919.0 136.0Q934 115 969.0 102.5Q1004 90 1067 83V8Q1030 -4 990.0 -11.0Q950 -18 917 -18ZM345 -20Q259 -20 193.0 11.5Q127 43 91.0 100.5Q55 158 55 232Q55 342 123.0 412.0Q191 482 339 525L746 641L747 557L402 454Q329 432 291.0 386.0Q253 340 253 272Q253 228 276.0 193.0Q299 158 340.5 138.5Q382 119 435 119Q515 119 595.5 163.5Q676 208 734 284L735 193Q659 89 559.0 34.5Q459 -20 345 -20Z" transform="translate(196.164 100.440) scale(0.022000 -0.022000)"/><path d="M329 1243 33 1353V1410L329 1520H392ZM555 75V0H33V75Q97 82 132.0 94.0Q167 106 181.5 126.0Q196 146 196 179V1387L392 1520V179Q392 146 406.5 126.0Q421 106 456.0 94.0Q491 82 555 75ZM1140 75V0H927L425 548L731 812Q769 845 773.5 873.0Q778 901 744.5 919.5Q711 938 638 942V1017H1116V942Q1056 932 1017.0 914.5Q978 897 942 867L559 548L593 639Z" transform="translate(220.078 100.440) scale(0.022000 -0.022000)"/><path d="M569 -20Q415 -20 297.0 43.5Q179 107 114.0 221.0Q49 335 49 483Q49 636 118.5 763.0Q188 890 308.0 963.5Q428 1037 571 1037Q694 1037 787.0 985.5Q880 934 931.0 840.5Q982 747 982 623V567H212V651L813 665L782 627Q782 726 754.5 797.0Q727 868 675.0 905.0Q623 942 550 942Q459 942 390.0 892.5Q321 843 283.5 753.5Q246 664 246 549Q246 421 290.5 330.0Q335 239 419.5 191.0Q504 143 622 143Q713 143 792.5 181.0Q872 219 939 286L993 232Q920 107 814.5 43.5Q709 -20 569 -20Z" transform="translate(245.202 100.440) scale(0.022000 -0.022000)"/><path d="" transform="translate(268.104 100.440) scale(0.022000 -0.022000)"/><path d="M446 68Q516 68 567.0 89.5Q618 111 645.5 150.5Q673 190 673 244Q673 302 641.0 338.5Q609 375 560.5 394.0Q512 413 439 431Q420 436 400 440Q272 471 202.0 507.5Q132 544 102.0 596.5Q72 649 72 732Q72 816 123.5 886.0Q175 956 264.0 996.5Q353 1037 460 1037Q562 1037 642.5 1015.0Q723 993 805 943V734H705Q675 841 612.5 895.0Q550 949 451 949Q392 949 346.0 929.5Q300 910 274.5 875.0Q249 840 249 795Q249 741 280.0 709.0Q311 677 358.5 660.5Q406 644 500 621Q635 588 711.5 547.5Q788 507 821.5 448.5Q855 390 855 301Q855 206 802.0 133.5Q749 61 653.5 20.5Q558 -20 433 -20Q332 -20 232.0 9.5Q132 39 61 89V315H161Q192 190 261.5 129.0Q331 68 446 68Z" transform="translate(275.144 100.440) scale(0.022000 -0.022000)"/><path d="M49 488Q49 637.93006993007 121.0 763.965034965035Q193 890 316.0 963.5Q439 1037 586 1037Q735.9756097560976 1037 854.4878048780488 971.5Q973 906 1040.0 790.54375Q1107 675.0875 1107 529Q1107 379.0699300699301 1035.0 253.03496503496504Q963 127 840.0 53.5Q717 -20 569.5384615384615 -20Q420 -20 301.5 45.5Q183 111 116.0 226.45625Q49 341.9125 49 488ZM902 478Q902 610 858.0 714.5Q814 819 736.6501547987616 878.5Q659.3003095975232 938 561.5386996904025 938Q467 938 397.4715025906736 889.9353448275863Q327.94300518134713 841.8706896551724 290.9715025906736 752.1500000000001Q254 662.4293103448276 254 537.9189655172414Q254 407 298.0 302.0Q342 197 419.5 137.5Q497 78 594.1005586592179 78Q688 78 757.5 126.0Q827 174 864.5 264.5Q902 355 902 478Z" transform="translate(295.076 100.440) scale(0.022000 -0.022000)"/><path d="M392 1037 329 776 33 878V935L329 1037ZM196 179V904L392 1037V179Q392 145 407.0 125.0Q422 105 456.5 93.5Q491 82 555 75V0H33V75Q97 82 131.5 93.5Q166 105 181.0 125.0Q196 145 196 179ZM861 179V699Q861 793 813.0 839.0Q765 885 666 885Q611 885 547.5 862.0Q484 839 425.0 799.0Q366 759 325 710V783Q375 857 446.5 914.5Q518 972 597.5 1004.5Q677 1037 751 1037Q901 1037 979.5 960.0Q1058 883 1058 735V179Q1058 145 1073.0 125.0Q1088 105 1122.5 93.5Q1157 82 1221 75V0H699V75Q762 82 797.0 93.5Q832 105 846.5 125.0Q861 145 861 179ZM1527 179V699Q1527 793 1479.0 839.0Q1431 885 1332 885Q1277 885 1213.5 862.0Q1150 839 1091.0 799.0Q1032 759 991 710V783Q1041 857 1112.5 914.5Q1184 972 1263.5 1004.5Q1343 1037 1417 1037Q1566 1037 1645.0 960.0Q1724 883 1724 735V179Q1724 145 1739.0 125.0Q1754 105 1788.5 93.5Q1823 82 1887 75V0H1365V75Q1428 82 1463.0 93.5Q1498 105 1512.5 125.0Q1527 145 1527 179Z" transform="translate(320.288 100.440) scale(0.022000 -0.022000)"/><path d="M569 -20Q415 -20 297.0 43.5Q179 107 114.0 221.0Q49 335 49 483Q49 636 118.5 763.0Q188 890 308.0 963.5Q428 1037 571 1037Q694 1037 787.0 985.5Q880 934 931.0 840.5Q982 747 982 623V567H212V651L813 665L782 627Q782 726 754.5 797.0Q727 868 675.0 905.0Q623 942 550 942Q459 942 390.0 892.5Q321 843 283.5 753.5Q246 664 246 549Q246 421 290.5 330.0Q335 239 419.5 191.0Q504 143 622 143Q713 143 792.5 181.0Q872 219 939 286L993 232Q920 107 814.5 43.5Q709 -20 569 -20Z" transform="translate(361.868 100.440) scale(0.022000 -0.022000)"/><path d="M299 1222H382V878H23V953Q100 978 148.5 1009.5Q197 1041 231.5 1090.5Q266 1140 299 1222ZM661 92V18Q608 -1 555.5 -10.5Q503 -20 456 -20Q328 -20 257.0 48.5Q186 117 186 243V949H382V259Q382 205 410.5 170.0Q439 135 500.0 116.5Q561 98 661 92ZM645 878H315V1017H645Z" transform="translate(384.770 100.440) scale(0.022000 -0.022000)"/><path d="M329 1243 33 1353V1410L329 1520H392ZM555 75V0H33V75Q97 82 131.5 93.5Q166 105 181.0 125.0Q196 145 196 179V1387L392 1520V179Q392 145 407.0 125.0Q422 105 456.5 93.5Q491 82 555 75ZM773 1037Q932 1037 1015.0 955.5Q1098 874 1098 719V179Q1098 145 1112.5 125.0Q1127 105 1162.0 93.5Q1197 82 1260 75V0H738V75Q802 82 836.5 93.5Q871 105 886.0 125.0Q901 145 901 179V686Q901 787 849.5 836.0Q798 885 692 885Q633 885 564.5 860.0Q496 835 432.0 792.0Q368 749 325 697V770Q378 847 453.5 908.0Q529 969 612.5 1003.0Q696 1037 773 1037Z" transform="translate(399.862 100.440) scale(0.022000 -0.022000)"/><path d="M284 1490Q322 1490 354.5 1471.5Q387 1453 405.5 1420.5Q424 1388 424 1350Q424 1313 405.5 1280.5Q387 1248 354.5 1229.0Q322 1210 284 1210Q247 1210 214.5 1229.0Q182 1248 163.0 1280.5Q144 1313 144 1350Q144 1388 163.0 1420.5Q182 1453 214.5 1471.5Q247 1490 284 1490ZM329 776 33 878V935L329 1037H392ZM555 75V0H33V75Q97 82 131.5 93.5Q166 105 181.0 125.0Q196 145 196 179V904L392 1037V179Q392 145 407.0 125.0Q422 105 456.5 93.5Q491 82 555 75Z" transform="translate(428.088 100.440) scale(0.022000 -0.022000)"/><path d="M392 1037 329 776 33 878V935L329 1037ZM196 179V904L392 1037V179Q392 145 407.0 125.0Q422 105 456.5 93.5Q491 82 555 75V0H33V75Q97 82 131.5 93.5Q166 105 181.0 125.0Q196 145 196 179ZM901 179V686Q901 787 849.5 836.0Q798 885 692 885Q633 885 564.5 860.0Q496 835 432.0 792.0Q368 749 325 697V770Q378 847 453.5 908.0Q529 969 612.5 1003.0Q696 1037 773 1037Q932 1037 1015.0 955.5Q1098 874 1098 719V179Q1098 145 1112.5 125.0Q1127 105 1162.0 93.5Q1197 82 1260 75V0H738V75Q802 82 836.5 93.5Q871 105 886.0 125.0Q901 145 901 179Z" transform="translate(440.804 100.440) scale(0.022000 -0.022000)"/><path d="M1057 1024H1111V878H781V951Q857 978 908.5 994.0Q960 1010 995.0 1017.0Q1030 1024 1057 1024ZM962 679Q962 572 904.5 481.5Q847 391 748.5 338.5Q650 286 532 286Q411 286 316.5 331.5Q222 377 169.0 458.0Q116 539 116 644Q116 752 173.5 842.0Q231 932 329.0 984.5Q427 1037 545 1037Q667 1037 761.5 992.0Q856 947 909.0 865.5Q962 784 962 679ZM305 681Q305 593 336.5 523.5Q368 454 423.0 415.0Q478 376 548 376Q655 376 713.5 445.5Q772 515 772 643Q772 730 741.0 799.5Q710 869 654.5 908.0Q599 947 529 947Q422 947 363.5 878.0Q305 809 305 681ZM164 -212Q164 -271 201.5 -313.0Q239 -355 310.5 -376.5Q382 -398 483 -398H576Q683 -398 764.0 -373.0Q845 -348 889.5 -302.0Q934 -256 934 -195Q934 -127 886.0 -90.5Q838 -54 749 -54H262L259 -23Q179 -23 130.5 26.0Q82 75 82 157Q82 218 116.5 268.5Q151 319 213.0 350.5Q275 382 355 389L375 319Q302 319 264.5 293.5Q227 268 227 219Q227 176 253.5 153.0Q280 130 330 130H804Q898 130 968.5 96.5Q1039 63 1077.5 1.0Q1116 -61 1116 -143Q1116 -237 1045.5 -314.0Q975 -391 852.0 -435.5Q729 -480 579 -480H476Q337 -480 230.5 -449.5Q124 -419 65.0 -363.5Q6 -308 6 -235Q6 -173 51.5 -118.0Q97 -63 172.5 -30.0Q248 3 334 3H418V-39H392Q285 -39 224.5 -85.0Q164 -131 164 -212Z" transform="translate(469.030 100.440) scale(0.022000 -0.022000)"/><path d="" transform="translate(493.912 100.440) scale(0.022000 -0.022000)"/><path d="M319 776 23 878V935L319 1037H382ZM592 132Q651 132 719.5 156.5Q788 181 851.5 224.0Q915 267 958 320V247Q906 170 830.5 109.0Q755 48 671.0 14.0Q587 -20 510 -20Q352 -20 269.0 61.5Q186 143 186 298V918L382 1037V331Q382 231 434.0 181.5Q486 132 592 132ZM1024 776 728 878V935L1024 1037H1088ZM1250 145V71L955 -10H891V903L1088 1037V254Q1088 219 1103.0 198.0Q1118 177 1152.5 165.0Q1187 153 1250 145Z" transform="translate(500.952 100.440) scale(0.022000 -0.022000)"/><path d="M446 68Q516 68 567.0 89.5Q618 111 645.5 150.5Q673 190 673 244Q673 302 641.0 338.5Q609 375 560.5 394.0Q512 413 439 431Q420 436 400 440Q272 471 202.0 507.5Q132 544 102.0 596.5Q72 649 72 732Q72 816 123.5 886.0Q175 956 264.0 996.5Q353 1037 460 1037Q562 1037 642.5 1015.0Q723 993 805 943V734H705Q675 841 612.5 895.0Q550 949 451 949Q392 949 346.0 929.5Q300 910 274.5 875.0Q249 840 249 795Q249 741 280.0 709.0Q311 677 358.5 660.5Q406 644 500 621Q635 588 711.5 547.5Q788 507 821.5 448.5Q855 390 855 301Q855 206 802.0 133.5Q749 61 653.5 20.5Q558 -20 433 -20Q332 -20 232.0 9.5Q132 39 61 89V315H161Q192 190 261.5 129.0Q331 68 446 68Z" transform="translate(528.958 100.440) scale(0.022000 -0.022000)"/><path d="M569 -20Q415 -20 297.0 43.5Q179 107 114.0 221.0Q49 335 49 483Q49 636 118.5 763.0Q188 890 308.0 963.5Q428 1037 571 1037Q694 1037 787.0 985.5Q880 934 931.0 840.5Q982 747 982 623V567H212V651L813 665L782 627Q782 726 754.5 797.0Q727 868 675.0 905.0Q623 942 550 942Q459 942 390.0 892.5Q321 843 283.5 753.5Q246 664 246 549Q246 421 290.5 330.0Q335 239 419.5 191.0Q504 143 622 143Q713 143 792.5 181.0Q872 219 939 286L993 232Q920 107 814.5 43.5Q709 -20 569 -20Z" transform="translate(548.890 100.440) scale(0.022000 -0.022000)"/><path d="M196 179V1127Q196 1247 242.0 1335.5Q288 1424 372.5 1472.0Q457 1520 570 1520Q649 1520 710.5 1493.5Q772 1467 806.0 1420.2877697841727Q840 1373.5755395683452 840 1316Q840 1286.3488372093022 826.5 1258.6744186046512Q813 1231 790 1216H651V1299Q651 1372.2794117647059 625.0 1411.139705882353Q599 1450 548.2063492063492 1450Q471 1450 431.5 1380.5223880597014Q392 1311.044776119403 392 1184V179Q392 145.05 407.1930693069307 125.165Q422.38613861386136 105.28 456.6930693069307 93.64Q491 82 555 75V0H33V75Q97 82 131.53488372093022 93.68548387096774Q166.06976744186048 105.37096774193549 181.03488372093022 125.18548387096774Q196 145 196 179ZM305 1095H369V878H33V957Q101 973 147.0 991.5Q193 1010 229.5 1034.0Q266 1058 305 1095ZM655 878H324V1017H655Z" transform="translate(571.792 100.440) scale(0.022000 -0.022000)"/><path d="M319 776 23 878V935L319 1037H382ZM592 132Q651 132 719.5 156.5Q788 181 851.5 224.0Q915 267 958 320V247Q906 170 830.5 109.0Q755 48 671.0 14.0Q587 -20 510 -20Q352 -20 269.0 61.5Q186 143 186 298V918L382 1037V331Q382 231 434.0 181.5Q486 132 592 132ZM1024 776 728 878V935L1024 1037H1088ZM1250 145V71L955 -10H891V903L1088 1037V254Q1088 219 1103.0 198.0Q1118 177 1152.5 165.0Q1187 153 1250 145Z" transform="translate(587.060 100.440) scale(0.022000 -0.022000)"/><path d="M329 1243 33 1353V1410L329 1520H392ZM555 75V0H33V75Q97 82 132.0 94.0Q167 106 181.5 126.0Q196 146 196 179V1387L392 1520V179Q392 146 406.5 126.0Q421 106 456.0 94.0Q491 82 555 75Z" transform="translate(615.066 100.440) scale(0.022000 -0.022000)"/><path d="M210 280Q249 280 282.5 260.5Q316 241 335.5 207.5Q355 174 355 135Q355 96 335.5 62.5Q316 29 282.5 9.5Q249 -10 210 -10Q171 -10 137.5 9.5Q104 29 84.5 62.5Q65 96 65 135Q65 174 84.5 207.5Q104 241 137.5 260.5Q171 280 210 280Z" transform="translate(627.782 100.440) scale(0.022000 -0.022000)"/></g><g fill="#A69F90"><path d="M1171 1034Q1171 914 1119.5 822.0Q1068 730 975.0 679.5Q882 629 762 629H270V802H747Q817 802 869.5 830.5Q922 859 950.5 911.5Q979 964 979 1034Q979 1105 950.5 1157.5Q922 1210 869.5 1238.5Q817 1267 747 1267H337L367 1297V0H178V1440H762Q882 1440 975.0 1389.5Q1068 1339 1119.5 1247.0Q1171 1155 1171 1034Z" transform="translate(52.736 138.650) scale(0.007100 -0.007100)"/><path d="M158 1080H313V300H289V705Q289 815 340.5 906.0Q392 997 482.0 1049.5Q572 1102 683 1102H743V921H658Q563 921 490.5 880.5Q418 840 378.0 767.0Q338 694 338 598V0H158Z" transform="translate(61.412 138.650) scale(0.007100 -0.007100)"/><path d="M88 540Q88 701 151.5 829.0Q215 957 327.5 1029.5Q440 1102 582 1102Q724 1102 837.0 1029.5Q950 957 1013.5 829.0Q1077 701 1077 540Q1077 379 1013.5 251.0Q950 123 837.0 50.5Q724 -22 582 -22Q440 -22 327.5 50.5Q215 123 151.5 251.0Q88 379 88 540ZM891 540Q891 659 852.5 750.0Q814 841 744.0 891.0Q674 941 582 941Q490 941 420.5 891.0Q351 841 312.5 750.0Q274 659 274 540Q274 421 312.5 330.0Q351 239 420.5 189.0Q490 139 582 139Q674 139 744.0 189.0Q814 239 852.5 330.0Q891 421 891 540Z" transform="translate(67.128 138.650) scale(0.007100 -0.007100)"/><path d="M901 689V1500H1082V0H928V689ZM545 -22Q415 -22 311.0 51.0Q207 124 147.5 252.0Q88 380 88 540Q88 700 147.5 828.0Q207 956 311.0 1029.0Q415 1102 545 1102Q669 1102 769.0 1029.5Q869 957 926.0 828.5Q983 700 983 540Q983 380 926.0 251.5Q869 123 769.0 50.5Q669 -22 545 -22ZM588 941Q494 941 423.0 891.0Q352 841 313.0 750.0Q274 659 274 540Q274 421 313.0 330.0Q352 239 423.0 189.0Q494 139 588 139Q681 139 752.0 189.0Q823 239 862.0 330.0Q901 421 901 540Q901 659 862.0 750.0Q823 841 752.0 891.0Q681 941 588 941Z" transform="translate(75.399 138.650) scale(0.007100 -0.007100)"/><path d="M592 140Q671 140 729.5 172.0Q788 204 820.0 263.0Q852 322 852 402V1080H1031V396Q1031 274 975.5 179.0Q920 84 819.5 31.0Q719 -22 591 -22Q463 -22 362.5 31.0Q262 84 206.5 179.0Q151 274 151 396V1080H332V402Q332 322 364.0 263.0Q396 204 454.5 172.0Q513 140 592 140Z" transform="translate(84.203 138.650) scale(0.007100 -0.007100)"/><path d="M587 941Q493 941 422.5 891.5Q352 842 313.0 751.0Q274 660 274 540Q274 420 313.0 329.0Q352 238 422.5 188.5Q493 139 587 139Q685 139 749.0 182.0Q813 225 833 305H1022Q1004 204 945.5 130.0Q887 56 795.0 17.0Q703 -22 587 -22Q442 -22 328.5 49.5Q215 121 151.5 249.0Q88 377 88 540Q88 703 151.5 831.0Q215 959 328.5 1030.5Q442 1102 587 1102Q703 1102 795.0 1063.0Q887 1024 945.5 950.0Q1004 876 1022 775H833Q813 855 749.0 898.0Q685 941 587 941Z" transform="translate(92.596 138.650) scale(0.007100 -0.007100)"/><path d="M591 159H765V0H558Q468 0 398.0 37.0Q328 74 289.0 140.5Q250 207 250 293V1360H431V320Q431 239 471.0 199.0Q511 159 591 159ZM709 1080V921H72V1080Z" transform="translate(100.434 138.650) scale(0.007100 -0.007100)"/><path d="" transform="translate(106.377 138.650) scale(0.007100 -0.007100)"/><path d="M351 1500V1220H153V1500ZM342 1080V0H162V1080Z" transform="translate(109.387 138.650) scale(0.007100 -0.007100)"/><path d="M901 689V1500H1082V0H928V689ZM545 -22Q415 -22 311.0 51.0Q207 124 147.5 252.0Q88 380 88 540Q88 700 147.5 828.0Q207 956 311.0 1029.0Q415 1102 545 1102Q669 1102 769.0 1029.5Q869 957 926.0 828.5Q983 700 983 540Q983 380 926.0 251.5Q869 123 769.0 50.5Q669 -22 545 -22ZM588 941Q494 941 423.0 891.0Q352 841 313.0 750.0Q274 659 274 540Q274 421 313.0 330.0Q352 239 423.0 189.0Q494 139 588 139Q681 139 752.0 189.0Q823 239 862.0 330.0Q901 421 901 540Q901 659 862.0 750.0Q823 841 752.0 891.0Q681 941 588 941Z" transform="translate(112.965 138.650) scale(0.007100 -0.007100)"/><path d="M599 -22Q451 -22 334.5 50.5Q218 123 153.0 251.5Q88 380 88 540Q88 700 151.5 828.0Q215 956 328.0 1029.0Q441 1102 582 1102Q725 1102 835.0 1034.5Q945 967 1005.5 844.5Q1066 722 1066 564V498H189V656H910L875 614Q875 714 839.0 788.5Q803 863 737.0 903.5Q671 944 582 944Q492 944 422.0 895.5Q352 847 313.0 758.5Q274 670 274 554V526Q274 409 315.0 320.5Q356 232 430.0 184.0Q504 136 599 136Q708 136 778.5 179.5Q849 223 876 305H1063Q1041 204 977.5 130.5Q914 57 817.0 17.5Q720 -22 599 -22Z" transform="translate(121.769 138.650) scale(0.007100 -0.007100)"/><path d="M518 1102Q639 1102 728.0 1055.0Q817 1008 864.5 920.0Q912 832 912 712V223Q912 191 926.5 175.0Q941 159 972 159H1041V0H945Q890 0 847.0 23.5Q804 47 779.5 89.0Q755 131 755 184V600H731V725Q731 830 674.5 887.0Q618 944 514 944Q423 944 367.5 900.0Q312 856 302 775H133Q141 875 190.5 948.5Q240 1022 324.0 1062.0Q408 1102 518 1102ZM536 655 843 682V524L548 498Q408 486 341.0 439.5Q274 393 274 300Q274 246 294.5 209.5Q315 173 355.0 154.5Q395 136 453 136Q534 136 597.0 179.0Q660 222 695.5 299.5Q731 377 731 476V600H793V384Q793 270 743.5 177.0Q694 84 608.0 31.0Q522 -22 416 -22Q321 -22 246.0 18.5Q171 59 128.5 131.5Q86 204 86 297Q86 454 206.0 545.0Q326 636 536 655Z" transform="translate(129.991 138.650) scale(0.007100 -0.007100)"/><path d="M513 136Q625 136 689.5 180.5Q754 225 754 302Q754 353 728.5 386.0Q703 419 646.0 440.5Q589 462 489 477Q364 496 285.5 534.5Q207 573 169.5 634.5Q132 696 132 786Q132 874 182.0 946.5Q232 1019 319.5 1060.5Q407 1102 514 1102Q625 1102 711.0 1061.5Q797 1021 847.0 947.0Q897 873 903 775H729Q721 856 665.0 900.0Q609 944 514 944Q420 944 366.0 905.0Q312 866 312 797Q312 751 336.0 720.0Q360 689 412.0 669.0Q464 649 552 636Q689 615 774.0 575.0Q859 535 899.0 471.0Q939 407 939 313Q939 217 884.0 140.5Q829 64 732.0 21.0Q635 -22 513 -22Q394 -22 299.5 21.0Q205 64 149.5 142.5Q94 221 88 324H266Q278 229 339.5 182.5Q401 136 513 136Z" transform="translate(137.752 138.650) scale(0.007100 -0.007100)"/><path d="M335 280V-31L198 -306H83L236 0H137V280Z" transform="translate(145.043 138.650) scale(0.007100 -0.007100)"/><path d="" transform="translate(148.394 138.650) scale(0.007100 -0.007100)"/><path d="M351 1500V1220H153V1500ZM342 1080V0H162V1080Z" transform="translate(151.405 138.650) scale(0.007100 -0.007100)"/><path d="M313 1080V300H289V732Q289 840 337.5 924.0Q386 1008 473.0 1055.0Q560 1102 673 1102Q778 1102 862.0 1055.5Q946 1009 993.5 927.5Q1041 846 1041 744V0H860V696Q860 771 830.5 826.5Q801 882 746.0 911.5Q691 941 617 941Q537 941 473.5 905.5Q410 870 374.0 807.0Q338 744 338 665V0H158V1080Z" transform="translate(154.983 138.650) scale(0.007100 -0.007100)"/><path d="M591 159H765V0H558Q468 0 398.0 37.0Q328 74 289.0 140.5Q250 207 250 293V1360H431V320Q431 239 471.0 199.0Q511 159 591 159ZM709 1080V921H72V1080Z" transform="translate(163.212 138.650) scale(0.007100 -0.007100)"/><path d="M599 -22Q451 -22 334.5 50.5Q218 123 153.0 251.5Q88 380 88 540Q88 700 151.5 828.0Q215 956 328.0 1029.0Q441 1102 582 1102Q725 1102 835.0 1034.5Q945 967 1005.5 844.5Q1066 722 1066 564V498H189V656H910L875 614Q875 714 839.0 788.5Q803 863 737.0 903.5Q671 944 582 944Q492 944 422.0 895.5Q352 847 313.0 758.5Q274 670 274 554V526Q274 409 315.0 320.5Q356 232 430.0 184.0Q504 136 599 136Q708 136 778.5 179.5Q849 223 876 305H1063Q1041 204 977.5 130.5Q914 57 817.0 17.5Q720 -22 599 -22Z" transform="translate(169.013 138.650) scale(0.007100 -0.007100)"/><path d="M158 1080H313V300H289V705Q289 815 340.5 906.0Q392 997 482.0 1049.5Q572 1102 683 1102H743V921H658Q563 921 490.5 880.5Q418 840 378.0 767.0Q338 694 338 598V0H158Z" transform="translate(177.235 138.650) scale(0.007100 -0.007100)"/><path d="M558 1500H785V1341H591Q511 1341 471.0 1301.0Q431 1261 431 1180V0H250V1207Q250 1293 289.0 1359.5Q328 1426 398.0 1463.0Q468 1500 558 1500ZM72 1080H709V921H72Z" transform="translate(182.950 138.650) scale(0.007100 -0.007100)"/><path d="M518 1102Q639 1102 728.0 1055.0Q817 1008 864.5 920.0Q912 832 912 712V223Q912 191 926.5 175.0Q941 159 972 159H1041V0H945Q890 0 847.0 23.5Q804 47 779.5 89.0Q755 131 755 184V600H731V725Q731 830 674.5 887.0Q618 944 514 944Q423 944 367.5 900.0Q312 856 302 775H133Q141 875 190.5 948.5Q240 1022 324.0 1062.0Q408 1102 518 1102ZM536 655 843 682V524L548 498Q408 486 341.0 439.5Q274 393 274 300Q274 246 294.5 209.5Q315 173 355.0 154.5Q395 136 453 136Q534 136 597.0 179.0Q660 222 695.5 299.5Q731 377 731 476V600H793V384Q793 270 743.5 177.0Q694 84 608.0 31.0Q522 -22 416 -22Q321 -22 246.0 18.5Q171 59 128.5 131.5Q86 204 86 297Q86 454 206.0 545.0Q326 636 536 655Z" transform="translate(188.112 138.650) scale(0.007100 -0.007100)"/><path d="M587 941Q493 941 422.5 891.5Q352 842 313.0 751.0Q274 660 274 540Q274 420 313.0 329.0Q352 238 422.5 188.5Q493 139 587 139Q685 139 749.0 182.0Q813 225 833 305H1022Q1004 204 945.5 130.0Q887 56 795.0 17.0Q703 -22 587 -22Q442 -22 328.5 49.5Q215 121 151.5 249.0Q88 377 88 540Q88 703 151.5 831.0Q215 959 328.5 1030.5Q442 1102 587 1102Q703 1102 795.0 1063.0Q887 1024 945.5 950.0Q1004 876 1022 775H833Q813 855 749.0 898.0Q685 941 587 941Z" transform="translate(195.695 138.650) scale(0.007100 -0.007100)"/><path d="M599 -22Q451 -22 334.5 50.5Q218 123 153.0 251.5Q88 380 88 540Q88 700 151.5 828.0Q215 956 328.0 1029.0Q441 1102 582 1102Q725 1102 835.0 1034.5Q945 967 1005.5 844.5Q1066 722 1066 564V498H189V656H910L875 614Q875 714 839.0 788.5Q803 863 737.0 903.5Q671 944 582 944Q492 944 422.0 895.5Q352 847 313.0 758.5Q274 670 274 554V526Q274 409 315.0 320.5Q356 232 430.0 184.0Q504 136 599 136Q708 136 778.5 179.5Q849 223 876 305H1063Q1041 204 977.5 130.5Q914 57 817.0 17.5Q720 -22 599 -22Z" transform="translate(203.533 138.650) scale(0.007100 -0.007100)"/><path d="" transform="translate(211.755 138.650) scale(0.007100 -0.007100)"/><path d="M587 941Q493 941 422.5 891.5Q352 842 313.0 751.0Q274 660 274 540Q274 420 313.0 329.0Q352 238 422.5 188.5Q493 139 587 139Q685 139 749.0 182.0Q813 225 833 305H1022Q1004 204 945.5 130.0Q887 56 795.0 17.0Q703 -22 587 -22Q442 -22 328.5 49.5Q215 121 151.5 249.0Q88 377 88 540Q88 703 151.5 831.0Q215 959 328.5 1030.5Q442 1102 587 1102Q703 1102 795.0 1063.0Q887 1024 945.5 950.0Q1004 876 1022 775H833Q813 855 749.0 898.0Q685 941 587 941Z" transform="translate(214.765 138.650) scale(0.007100 -0.007100)"/><path d="M158 1080H313V300H289V705Q289 815 340.5 906.0Q392 997 482.0 1049.5Q572 1102 683 1102H743V921H658Q563 921 490.5 880.5Q418 840 378.0 767.0Q338 694 338 598V0H158Z" transform="translate(222.604 138.650) scale(0.007100 -0.007100)"/><path d="M518 1102Q639 1102 728.0 1055.0Q817 1008 864.5 920.0Q912 832 912 712V223Q912 191 926.5 175.0Q941 159 972 159H1041V0H945Q890 0 847.0 23.5Q804 47 779.5 89.0Q755 131 755 184V600H731V725Q731 830 674.5 887.0Q618 944 514 944Q423 944 367.5 900.0Q312 856 302 775H133Q141 875 190.5 948.5Q240 1022 324.0 1062.0Q408 1102 518 1102ZM536 655 843 682V524L548 498Q408 486 341.0 439.5Q274 393 274 300Q274 246 294.5 209.5Q315 173 355.0 154.5Q395 136 453 136Q534 136 597.0 179.0Q660 222 695.5 299.5Q731 377 731 476V600H793V384Q793 270 743.5 177.0Q694 84 608.0 31.0Q522 -22 416 -22Q321 -22 246.0 18.5Q171 59 128.5 131.5Q86 204 86 297Q86 454 206.0 545.0Q326 636 536 655Z" transform="translate(228.000 138.650) scale(0.007100 -0.007100)"/><path d="M558 1500H785V1341H591Q511 1341 471.0 1301.0Q431 1261 431 1180V0H250V1207Q250 1293 289.0 1359.5Q328 1426 398.0 1463.0Q468 1500 558 1500ZM72 1080H709V921H72Z" transform="translate(235.405 138.650) scale(0.007100 -0.007100)"/><path d="M591 159H765V0H558Q468 0 398.0 37.0Q328 74 289.0 140.5Q250 207 250 293V1360H431V320Q431 239 471.0 199.0Q511 159 591 159ZM709 1080V921H72V1080Z" transform="translate(241.028 138.650) scale(0.007100 -0.007100)"/><path d="M335 280V-31L198 -306H83L236 0H137V280Z" transform="translate(246.971 138.650) scale(0.007100 -0.007100)"/><path d="" transform="translate(250.322 138.650) scale(0.007100 -0.007100)"/><path d="M313 1080V300H289V770Q289 867 332.5 942.5Q376 1018 454.5 1060.0Q533 1102 634 1102Q726 1102 797.5 1061.5Q869 1021 909.0 948.0Q949 875 949 781V300H913V770Q913 867 956.5 942.5Q1000 1018 1079.0 1060.0Q1158 1102 1259 1102Q1352 1102 1427.0 1060.5Q1502 1019 1544.5 945.5Q1587 872 1587 781V0H1406V733Q1406 830 1351.0 885.5Q1296 941 1201 941Q1133 941 1078.5 910.5Q1024 880 993.5 827.0Q963 774 963 707V0H782V733Q782 830 727.0 885.5Q672 941 577 941Q509 941 454.5 910.5Q400 880 369.0 827.0Q338 774 338 707V0H158V1080Z" transform="translate(253.332 138.650) scale(0.007100 -0.007100)"/><path d="M599 -22Q451 -22 334.5 50.5Q218 123 153.0 251.5Q88 380 88 540Q88 700 151.5 828.0Q215 956 328.0 1029.0Q441 1102 582 1102Q725 1102 835.0 1034.5Q945 967 1005.5 844.5Q1066 722 1066 564V498H189V656H910L875 614Q875 714 839.0 788.5Q803 863 737.0 903.5Q671 944 582 944Q492 944 422.0 895.5Q352 847 313.0 758.5Q274 670 274 554V526Q274 409 315.0 320.5Q356 232 430.0 184.0Q504 136 599 136Q708 136 778.5 179.5Q849 223 876 305H1063Q1041 204 977.5 130.5Q914 57 817.0 17.5Q720 -22 599 -22Z" transform="translate(265.701 138.650) scale(0.007100 -0.007100)"/><path d="M901 689V1500H1082V0H928V689ZM545 -22Q415 -22 311.0 51.0Q207 124 147.5 252.0Q88 380 88 540Q88 700 147.5 828.0Q207 956 311.0 1029.0Q415 1102 545 1102Q669 1102 769.0 1029.5Q869 957 926.0 828.5Q983 700 983 540Q983 380 926.0 251.5Q869 123 769.0 50.5Q669 -22 545 -22ZM588 941Q494 941 423.0 891.0Q352 841 313.0 750.0Q274 659 274 540Q274 421 313.0 330.0Q352 239 423.0 189.0Q494 139 588 139Q681 139 752.0 189.0Q823 239 862.0 330.0Q901 421 901 540Q901 659 862.0 750.0Q823 841 752.0 891.0Q681 941 588 941Z" transform="translate(273.923 138.650) scale(0.007100 -0.007100)"/><path d="M351 1500V1220H153V1500ZM342 1080V0H162V1080Z" transform="translate(282.726 138.650) scale(0.007100 -0.007100)"/><path d="M518 1102Q639 1102 728.0 1055.0Q817 1008 864.5 920.0Q912 832 912 712V223Q912 191 926.5 175.0Q941 159 972 159H1041V0H945Q890 0 847.0 23.5Q804 47 779.5 89.0Q755 131 755 184V600H731V725Q731 830 674.5 887.0Q618 944 514 944Q423 944 367.5 900.0Q312 856 302 775H133Q141 875 190.5 948.5Q240 1022 324.0 1062.0Q408 1102 518 1102ZM536 655 843 682V524L548 498Q408 486 341.0 439.5Q274 393 274 300Q274 246 294.5 209.5Q315 173 355.0 154.5Q395 136 453 136Q534 136 597.0 179.0Q660 222 695.5 299.5Q731 377 731 476V600H793V384Q793 270 743.5 177.0Q694 84 608.0 31.0Q522 -22 416 -22Q321 -22 246.0 18.5Q171 59 128.5 131.5Q86 204 86 297Q86 454 206.0 545.0Q326 636 536 655Z" transform="translate(286.305 138.650) scale(0.007100 -0.007100)"/><path d="" transform="translate(294.065 138.650) scale(0.007100 -0.007100)"/><path d="M591 159H765V0H558Q468 0 398.0 37.0Q328 74 289.0 140.5Q250 207 250 293V1360H431V320Q431 239 471.0 199.0Q511 159 591 159ZM709 1080V921H72V1080Z" transform="translate(297.076 138.650) scale(0.007100 -0.007100)"/><path d="M88 540Q88 701 151.5 829.0Q215 957 327.5 1029.5Q440 1102 582 1102Q724 1102 837.0 1029.5Q950 957 1013.5 829.0Q1077 701 1077 540Q1077 379 1013.5 251.0Q950 123 837.0 50.5Q724 -22 582 -22Q440 -22 327.5 50.5Q215 123 151.5 251.0Q88 379 88 540ZM891 540Q891 659 852.5 750.0Q814 841 744.0 891.0Q674 941 582 941Q490 941 420.5 891.0Q351 841 312.5 750.0Q274 659 274 540Q274 421 312.5 330.0Q351 239 420.5 189.0Q490 139 582 139Q674 139 744.0 189.0Q814 239 852.5 330.0Q891 421 891 540Z" transform="translate(302.876 138.650) scale(0.007100 -0.007100)"/><path d="M88 540Q88 701 151.5 829.0Q215 957 327.5 1029.5Q440 1102 582 1102Q724 1102 837.0 1029.5Q950 957 1013.5 829.0Q1077 701 1077 540Q1077 379 1013.5 251.0Q950 123 837.0 50.5Q724 -22 582 -22Q440 -22 327.5 50.5Q215 123 151.5 251.0Q88 379 88 540ZM891 540Q891 659 852.5 750.0Q814 841 744.0 891.0Q674 941 582 941Q490 941 420.5 891.0Q351 841 312.5 750.0Q274 659 274 540Q274 421 312.5 330.0Q351 239 420.5 189.0Q490 139 582 139Q674 139 744.0 189.0Q814 239 852.5 330.0Q891 421 891 540Z" transform="translate(311.148 138.650) scale(0.007100 -0.007100)"/><path d="M342 1500V0H162V1500Z" transform="translate(319.419 138.650) scale(0.007100 -0.007100)"/><path d="M351 1500V1220H153V1500ZM342 1080V0H162V1080Z" transform="translate(322.998 138.650) scale(0.007100 -0.007100)"/><path d="M313 1080V300H289V732Q289 840 337.5 924.0Q386 1008 473.0 1055.0Q560 1102 673 1102Q778 1102 862.0 1055.5Q946 1009 993.5 927.5Q1041 846 1041 744V0H860V696Q860 771 830.5 826.5Q801 882 746.0 911.5Q691 941 617 941Q537 941 473.5 905.5Q410 870 374.0 807.0Q338 744 338 665V0H158V1080Z" transform="translate(326.576 138.650) scale(0.007100 -0.007100)"/><path d="M1086 921H975Q929 921 878.5 929.5Q828 938 774 954Q761 959 747 963L608 1080H1086ZM543 1102Q657 1102 750.0 1050.5Q843 999 896.5 909.0Q950 819 950 708Q950 597 896.5 507.0Q843 417 750.0 365.5Q657 314 543 314Q429 314 336.0 365.5Q243 417 189.5 507.0Q136 597 136 708Q136 819 189.5 909.0Q243 999 336.0 1050.5Q429 1102 543 1102ZM543 470Q609 470 659.5 499.5Q710 529 738.0 583.0Q766 637 766 708Q766 779 738.0 833.0Q710 887 659.5 916.5Q609 946 543 946Q477 946 426.5 916.5Q376 887 348.0 833.0Q320 779 320 708Q320 637 348.0 583.0Q376 529 426.5 499.5Q477 470 543 470ZM272 244Q272 204 298.0 178.5Q324 153 364 153H750Q843 153 916.0 114.0Q989 75 1030.5 6.0Q1072 -63 1072 -149Q1072 -251 1014.0 -329.0Q956 -407 850.5 -450.0Q745 -493 607 -493H447Q319 -493 223.5 -459.0Q128 -425 76.5 -362.0Q25 -299 25 -215Q25 -138 65.5 -76.0Q106 -14 178.0 21.5Q250 57 341 57H538V17H342Q275 17 223.5 43.5Q172 70 143.0 117.0Q114 164 114 224Q114 285 143.0 333.5Q172 382 224.0 409.0Q276 436 342 436H543V336H364Q324 336 298.0 310.5Q272 285 272 244ZM203 -184Q203 -260 269.5 -301.5Q336 -343 459 -343H614Q697 -343 758.5 -322.0Q820 -301 853.5 -262.5Q887 -224 887 -171Q887 -103 846.0 -65.5Q805 -28 728 -28H422Q356 -28 306.5 -47.5Q257 -67 230.0 -102.5Q203 -138 203 -184Z" transform="translate(335.053 138.650) scale(0.007100 -0.007100)"/><path d="M335 280V-31L198 -306H83L236 0H137V280Z" transform="translate(342.800 138.650) scale(0.007100 -0.007100)"/><path d="" transform="translate(346.151 138.650) scale(0.007100 -0.007100)"/><path d="M518 1102Q639 1102 728.0 1055.0Q817 1008 864.5 920.0Q912 832 912 712V223Q912 191 926.5 175.0Q941 159 972 159H1041V0H945Q890 0 847.0 23.5Q804 47 779.5 89.0Q755 131 755 184V600H731V725Q731 830 674.5 887.0Q618 944 514 944Q423 944 367.5 900.0Q312 856 302 775H133Q141 875 190.5 948.5Q240 1022 324.0 1062.0Q408 1102 518 1102ZM536 655 843 682V524L548 498Q408 486 341.0 439.5Q274 393 274 300Q274 246 294.5 209.5Q315 173 355.0 154.5Q395 136 453 136Q534 136 597.0 179.0Q660 222 695.5 299.5Q731 377 731 476V600H793V384Q793 270 743.5 177.0Q694 84 608.0 31.0Q522 -22 416 -22Q321 -22 246.0 18.5Q171 59 128.5 131.5Q86 204 86 297Q86 454 206.0 545.0Q326 636 536 655Z" transform="translate(349.161 138.650) scale(0.007100 -0.007100)"/><path d="M313 1080V300H289V732Q289 840 337.5 924.0Q386 1008 473.0 1055.0Q560 1102 673 1102Q778 1102 862.0 1055.5Q946 1009 993.5 927.5Q1041 846 1041 744V0H860V696Q860 771 830.5 826.5Q801 882 746.0 911.5Q691 941 617 941Q537 941 473.5 905.5Q410 870 374.0 807.0Q338 744 338 665V0H158V1080Z" transform="translate(356.921 138.650) scale(0.007100 -0.007100)"/><path d="M901 689V1500H1082V0H928V689ZM545 -22Q415 -22 311.0 51.0Q207 124 147.5 252.0Q88 380 88 540Q88 700 147.5 828.0Q207 956 311.0 1029.0Q415 1102 545 1102Q669 1102 769.0 1029.5Q869 957 926.0 828.5Q983 700 983 540Q983 380 926.0 251.5Q869 123 769.0 50.5Q669 -22 545 -22ZM588 941Q494 941 423.0 891.0Q352 841 313.0 750.0Q274 659 274 540Q274 421 313.0 330.0Q352 239 423.0 189.0Q494 139 588 139Q681 139 752.0 189.0Q823 239 862.0 330.0Q901 421 901 540Q901 659 862.0 750.0Q823 841 752.0 891.0Q681 941 588 941Z" transform="translate(365.399 138.650) scale(0.007100 -0.007100)"/><path d="" transform="translate(374.203 138.650) scale(0.007100 -0.007100)"/><path d="M591 159H765V0H558Q468 0 398.0 37.0Q328 74 289.0 140.5Q250 207 250 293V1360H431V320Q431 239 471.0 199.0Q511 159 591 159ZM709 1080V921H72V1080Z" transform="translate(377.213 138.650) scale(0.007100 -0.007100)"/><path d="M338 1500V743L289 694V732Q289 838 338.5 922.0Q388 1006 475.5 1054.0Q563 1102 673 1102Q778 1102 862.0 1055.5Q946 1009 993.5 927.5Q1041 846 1041 744V0H860V696Q860 771 830.5 826.5Q801 882 746.0 911.5Q691 941 617 941Q537 941 473.5 905.5Q410 870 374.0 807.0Q338 744 338 665V0H158V1500Z" transform="translate(383.156 138.650) scale(0.007100 -0.007100)"/><path d="M88 540Q88 701 151.5 829.0Q215 957 327.5 1029.5Q440 1102 582 1102Q724 1102 837.0 1029.5Q950 957 1013.5 829.0Q1077 701 1077 540Q1077 379 1013.5 251.0Q950 123 837.0 50.5Q724 -22 582 -22Q440 -22 327.5 50.5Q215 123 151.5 251.0Q88 379 88 540ZM891 540Q891 659 852.5 750.0Q814 841 744.0 891.0Q674 941 582 941Q490 941 420.5 891.0Q351 841 312.5 750.0Q274 659 274 540Q274 421 312.5 330.0Q351 239 420.5 189.0Q490 139 582 139Q674 139 744.0 189.0Q814 239 852.5 330.0Q891 421 891 540Z" transform="translate(391.633 138.650) scale(0.007100 -0.007100)"/><path d="M592 140Q671 140 729.5 172.0Q788 204 820.0 263.0Q852 322 852 402V1080H1031V396Q1031 274 975.5 179.0Q920 84 819.5 31.0Q719 -22 591 -22Q463 -22 362.5 31.0Q262 84 206.5 179.0Q151 274 151 396V1080H332V402Q332 322 364.0 263.0Q396 204 454.5 172.0Q513 140 592 140Z" transform="translate(399.905 138.650) scale(0.007100 -0.007100)"/><path d="M1086 921H975Q929 921 878.5 929.5Q828 938 774 954Q761 959 747 963L608 1080H1086ZM543 1102Q657 1102 750.0 1050.5Q843 999 896.5 909.0Q950 819 950 708Q950 597 896.5 507.0Q843 417 750.0 365.5Q657 314 543 314Q429 314 336.0 365.5Q243 417 189.5 507.0Q136 597 136 708Q136 819 189.5 909.0Q243 999 336.0 1050.5Q429 1102 543 1102ZM543 470Q609 470 659.5 499.5Q710 529 738.0 583.0Q766 637 766 708Q766 779 738.0 833.0Q710 887 659.5 916.5Q609 946 543 946Q477 946 426.5 916.5Q376 887 348.0 833.0Q320 779 320 708Q320 637 348.0 583.0Q376 529 426.5 499.5Q477 470 543 470ZM272 244Q272 204 298.0 178.5Q324 153 364 153H750Q843 153 916.0 114.0Q989 75 1030.5 6.0Q1072 -63 1072 -149Q1072 -251 1014.0 -329.0Q956 -407 850.5 -450.0Q745 -493 607 -493H447Q319 -493 223.5 -459.0Q128 -425 76.5 -362.0Q25 -299 25 -215Q25 -138 65.5 -76.0Q106 -14 178.0 21.5Q250 57 341 57H538V17H342Q275 17 223.5 43.5Q172 70 143.0 117.0Q114 164 114 224Q114 285 143.0 333.5Q172 382 224.0 409.0Q276 436 342 436H543V336H364Q324 336 298.0 310.5Q272 285 272 244ZM203 -184Q203 -260 269.5 -301.5Q336 -343 459 -343H614Q697 -343 758.5 -322.0Q820 -301 853.5 -262.5Q887 -224 887 -171Q887 -103 846.0 -65.5Q805 -28 728 -28H422Q356 -28 306.5 -47.5Q257 -67 230.0 -102.5Q203 -138 203 -184Z" transform="translate(408.084 138.650) scale(0.007100 -0.007100)"/><path d="M338 1500V743L289 694V732Q289 838 338.5 922.0Q388 1006 475.5 1054.0Q563 1102 673 1102Q778 1102 862.0 1055.5Q946 1009 993.5 927.5Q1041 846 1041 744V0H860V696Q860 771 830.5 826.5Q801 882 746.0 911.5Q691 941 617 941Q537 941 473.5 905.5Q410 870 374.0 807.0Q338 744 338 665V0H158V1500Z" transform="translate(416.185 138.650) scale(0.007100 -0.007100)"/><path d="M591 159H765V0H558Q468 0 398.0 37.0Q328 74 289.0 140.5Q250 207 250 293V1360H431V320Q431 239 471.0 199.0Q511 159 591 159ZM709 1080V921H72V1080Z" transform="translate(424.414 138.650) scale(0.007100 -0.007100)"/><path d="M558 1500H785V1341H591Q511 1341 471.0 1301.0Q431 1261 431 1180V0H250V1207Q250 1293 289.0 1359.5Q328 1426 398.0 1463.0Q468 1500 558 1500ZM72 1080H709V921H72Z" transform="translate(430.037 138.650) scale(0.007100 -0.007100)"/><path d="M592 140Q671 140 729.5 172.0Q788 204 820.0 263.0Q852 322 852 402V1080H1031V396Q1031 274 975.5 179.0Q920 84 819.5 31.0Q719 -22 591 -22Q463 -22 362.5 31.0Q262 84 206.5 179.0Q151 274 151 396V1080H332V402Q332 322 364.0 263.0Q396 204 454.5 172.0Q513 140 592 140Z" transform="translate(435.731 138.650) scale(0.007100 -0.007100)"/><path d="M342 1500V0H162V1500Z" transform="translate(444.124 138.650) scale(0.007100 -0.007100)"/><path d="" transform="translate(447.702 138.650) scale(0.007100 -0.007100)"/><path d="M587 941Q493 941 422.5 891.5Q352 842 313.0 751.0Q274 660 274 540Q274 420 313.0 329.0Q352 238 422.5 188.5Q493 139 587 139Q685 139 749.0 182.0Q813 225 833 305H1022Q1004 204 945.5 130.0Q887 56 795.0 17.0Q703 -22 587 -22Q442 -22 328.5 49.5Q215 121 151.5 249.0Q88 377 88 540Q88 703 151.5 831.0Q215 959 328.5 1030.5Q442 1102 587 1102Q703 1102 795.0 1063.0Q887 1024 945.5 950.0Q1004 876 1022 775H833Q813 855 749.0 898.0Q685 941 587 941Z" transform="translate(450.712 138.650) scale(0.007100 -0.007100)"/><path d="M88 540Q88 701 151.5 829.0Q215 957 327.5 1029.5Q440 1102 582 1102Q724 1102 837.0 1029.5Q950 957 1013.5 829.0Q1077 701 1077 540Q1077 379 1013.5 251.0Q950 123 837.0 50.5Q724 -22 582 -22Q440 -22 327.5 50.5Q215 123 151.5 251.0Q88 379 88 540ZM891 540Q891 659 852.5 750.0Q814 841 744.0 891.0Q674 941 582 941Q490 941 420.5 891.0Q351 841 312.5 750.0Q274 659 274 540Q274 421 312.5 330.0Q351 239 420.5 189.0Q490 139 582 139Q674 139 744.0 189.0Q814 239 852.5 330.0Q891 421 891 540Z" transform="translate(458.551 138.650) scale(0.007100 -0.007100)"/><path d="M342 1500V0H162V1500Z" transform="translate(466.822 138.650) scale(0.007100 -0.007100)"/><path d="M342 1500V0H162V1500Z" transform="translate(470.401 138.650) scale(0.007100 -0.007100)"/><path d="M518 1102Q639 1102 728.0 1055.0Q817 1008 864.5 920.0Q912 832 912 712V223Q912 191 926.5 175.0Q941 159 972 159H1041V0H945Q890 0 847.0 23.5Q804 47 779.5 89.0Q755 131 755 184V600H731V725Q731 830 674.5 887.0Q618 944 514 944Q423 944 367.5 900.0Q312 856 302 775H133Q141 875 190.5 948.5Q240 1022 324.0 1062.0Q408 1102 518 1102ZM536 655 843 682V524L548 498Q408 486 341.0 439.5Q274 393 274 300Q274 246 294.5 209.5Q315 173 355.0 154.5Q395 136 453 136Q534 136 597.0 179.0Q660 222 695.5 299.5Q731 377 731 476V600H793V384Q793 270 743.5 177.0Q694 84 608.0 31.0Q522 -22 416 -22Q321 -22 246.0 18.5Q171 59 128.5 131.5Q86 204 86 297Q86 454 206.0 545.0Q326 636 536 655Z" transform="translate(473.979 138.650) scale(0.007100 -0.007100)"/><path d="M312 0H158V1500H338V689H312ZM694 1102Q824 1102 928.5 1029.0Q1033 956 1092.5 828.0Q1152 700 1152 540Q1152 380 1092.5 252.0Q1033 124 928.5 51.0Q824 -22 694 -22Q570 -22 470.5 50.5Q371 123 314.0 251.5Q257 380 257 540Q257 700 314.0 828.5Q371 957 470.5 1029.5Q570 1102 694 1102ZM652 139Q746 139 817.0 189.0Q888 239 927.0 330.0Q966 421 966 540Q966 659 927.0 750.0Q888 841 817.0 891.0Q746 941 652 941Q558 941 487.0 891.0Q416 841 377.0 750.0Q338 659 338 540Q338 421 377.0 330.0Q416 239 487.0 189.0Q558 139 652 139Z" transform="translate(481.739 138.650) scale(0.007100 -0.007100)"/><path d="M88 540Q88 701 151.5 829.0Q215 957 327.5 1029.5Q440 1102 582 1102Q724 1102 837.0 1029.5Q950 957 1013.5 829.0Q1077 701 1077 540Q1077 379 1013.5 251.0Q950 123 837.0 50.5Q724 -22 582 -22Q440 -22 327.5 50.5Q215 123 151.5 251.0Q88 379 88 540ZM891 540Q891 659 852.5 750.0Q814 841 744.0 891.0Q674 941 582 941Q490 941 420.5 891.0Q351 841 312.5 750.0Q274 659 274 540Q274 421 312.5 330.0Q351 239 420.5 189.0Q490 139 582 139Q674 139 744.0 189.0Q814 239 852.5 330.0Q891 421 891 540Z" transform="translate(490.543 138.650) scale(0.007100 -0.007100)"/><path d="M158 1080H313V300H289V705Q289 815 340.5 906.0Q392 997 482.0 1049.5Q572 1102 683 1102H743V921H658Q563 921 490.5 880.5Q418 840 378.0 767.0Q338 694 338 598V0H158Z" transform="translate(498.815 138.650) scale(0.007100 -0.007100)"/><path d="M518 1102Q639 1102 728.0 1055.0Q817 1008 864.5 920.0Q912 832 912 712V223Q912 191 926.5 175.0Q941 159 972 159H1041V0H945Q890 0 847.0 23.5Q804 47 779.5 89.0Q755 131 755 184V600H731V725Q731 830 674.5 887.0Q618 944 514 944Q423 944 367.5 900.0Q312 856 302 775H133Q141 875 190.5 948.5Q240 1022 324.0 1062.0Q408 1102 518 1102ZM536 655 843 682V524L548 498Q408 486 341.0 439.5Q274 393 274 300Q274 246 294.5 209.5Q315 173 355.0 154.5Q395 136 453 136Q534 136 597.0 179.0Q660 222 695.5 299.5Q731 377 731 476V600H793V384Q793 270 743.5 177.0Q694 84 608.0 31.0Q522 -22 416 -22Q321 -22 246.0 18.5Q171 59 128.5 131.5Q86 204 86 297Q86 454 206.0 545.0Q326 636 536 655Z" transform="translate(504.211 138.650) scale(0.007100 -0.007100)"/><path d="M591 159H765V0H558Q468 0 398.0 37.0Q328 74 289.0 140.5Q250 207 250 293V1360H431V320Q431 239 471.0 199.0Q511 159 591 159ZM709 1080V921H72V1080Z" transform="translate(511.687 138.650) scale(0.007100 -0.007100)"/><path d="M351 1500V1220H153V1500ZM342 1080V0H162V1080Z" transform="translate(517.630 138.650) scale(0.007100 -0.007100)"/><path d="M88 540Q88 701 151.5 829.0Q215 957 327.5 1029.5Q440 1102 582 1102Q724 1102 837.0 1029.5Q950 957 1013.5 829.0Q1077 701 1077 540Q1077 379 1013.5 251.0Q950 123 837.0 50.5Q724 -22 582 -22Q440 -22 327.5 50.5Q215 123 151.5 251.0Q88 379 88 540ZM891 540Q891 659 852.5 750.0Q814 841 744.0 891.0Q674 941 582 941Q490 941 420.5 891.0Q351 841 312.5 750.0Q274 659 274 540Q274 421 312.5 330.0Q351 239 420.5 189.0Q490 139 582 139Q674 139 744.0 189.0Q814 239 852.5 330.0Q891 421 891 540Z" transform="translate(521.208 138.650) scale(0.007100 -0.007100)"/><path d="M313 1080V300H289V732Q289 840 337.5 924.0Q386 1008 473.0 1055.0Q560 1102 673 1102Q778 1102 862.0 1055.5Q946 1009 993.5 927.5Q1041 846 1041 744V0H860V696Q860 771 830.5 826.5Q801 882 746.0 911.5Q691 941 617 941Q537 941 473.5 905.5Q410 870 374.0 807.0Q338 744 338 665V0H158V1080Z" transform="translate(529.480 138.650) scale(0.007100 -0.007100)"/><path d="M335 280V0H137V280Z" transform="translate(537.957 138.650) scale(0.007100 -0.007100)"/></g><rect x="54" y="181" width="182" height="38" fill="#CEC6B1" rx="19" /><g fill="#31302E"><path d="M600 202Q664 202 712.0 227.0Q760 252 786.5 297.5Q813 343 813 403Q813 468 789.0 511.0Q765 554 709.5 583.5Q654 613 555 635Q346 678 248.0 781.0Q150 884 150 1045Q150 1166 207.0 1261.5Q264 1357 366.5 1411.0Q469 1465 600 1465Q730 1465 831.0 1412.5Q932 1360 989.5 1264.5Q1047 1169 1050 1046H795Q792 1106 767.5 1149.0Q743 1192 700.0 1215.0Q657 1238 600 1238Q545 1238 501.0 1215.0Q457 1192 432.0 1151.5Q407 1111 407 1062Q407 1011 428.5 975.5Q450 940 502.0 914.5Q554 889 646 869Q798 837 892.0 778.5Q986 720 1029.0 633.5Q1072 547 1072 427Q1072 295 1013.5 192.5Q955 90 847.5 32.5Q740 -25 600 -25Q454 -25 348.0 33.0Q242 91 185.5 199.0Q129 307 128 454H384Q385 326 441.5 264.0Q498 202 600 202Z" transform="translate(72.365 203.384) scale(0.004700 -0.004700)"/><path d="M735 0H467V1235L505 1197H114V1440H1086V1197H695L735 1235Z" transform="translate(78.705 203.384) scale(0.004700 -0.004700)"/><path d="M797 1440 1131 0H848L576 1260H608L336 0H69L403 1440ZM851 602 900 359H295L344 602Z" transform="translate(85.045 203.384) scale(0.004700 -0.004700)"/><path d="M177 1440H654Q777.3030303030303 1440 872.1515151515151 1388.0Q967 1336 1019.5 1241.5Q1072 1147 1072 1024Q1072 901 1019.5 807.5Q967 714 872.1515151515151 662.0Q777.3030303030303 610 654 610H317V852H625Q677.556886227545 852 716.7784431137725 873.0Q756 894 777.0 933.077380952381Q798 972.1547619047619 798 1024Q798 1076.556886227545 777.0 1115.7784431137725Q756 1155 716.7784431137725 1176.0Q677.556886227545 1197 625 1197H415L445 1227V0H177ZM1107 0H816L545 731H809Z" transform="translate(91.385 203.384) scale(0.004700 -0.004700)"/><path d="M735 0H467V1235L505 1197H114V1440H1086V1197H695L735 1235Z" transform="translate(97.725 203.384) scale(0.004700 -0.004700)"/><path d="" transform="translate(104.065 203.384) scale(0.004700 -0.004700)"/><path d="M797 1440 1131 0H848L576 1260H608L336 0H69L403 1440ZM851 602 900 359H295L344 602Z" transform="translate(110.405 203.384) scale(0.004700 -0.004700)"/><path d="" transform="translate(116.745 203.384) scale(0.004700 -0.004700)"/><path d="M620 -25Q478 -25 367.5 37.0Q257 99 195.5 209.5Q134 320 134 461V979Q134 1120 195.5 1230.5Q257 1341 367.5 1403.0Q478 1465 620 1465Q764 1465 869.0 1407.0Q974 1349 1032.5 1241.0Q1091 1133 1096 986H829Q827 1059 801.5 1110.5Q776 1162 730.0 1189.0Q684 1216 620 1216Q553 1216 504.0 1187.5Q455 1159 428.5 1106.5Q402 1054 402 983V458Q402 387 428.5 334.0Q455 281 504.5 252.5Q554 224 620 224Q684 224 730.0 251.0Q776 278 801.5 329.5Q827 381 829 454H1096Q1091 307 1032.5 199.0Q974 91 869.0 33.0Q764 -25 620 -25Z" transform="translate(123.085 203.384) scale(0.004700 -0.004700)"/><path d="M114 461V979Q114 1119.2742857142857 175.5 1229.6371428571429Q237 1340 347.7274590163935 1402.5Q458.4549180327869 1465 600.2274590163935 1465Q742 1465 852.5 1402.5Q963 1340 1024.5 1229.6371428571429Q1086 1119.2742857142857 1086 979V461Q1086 320.7257142857143 1024.5 210.36285714285714Q963 100 852.2725409836066 37.5Q741.5450819672132 -25 599.7725409836065 -25Q458 -25 347.5 37.5Q237 100 175.5 210.36285714285714Q114 320.7257142857143 114 461ZM818 458V983Q818 1054 791.5967302452316 1106.4571428571428Q765.1934604904632 1158.9142857142856 715.8814713896458 1187.4571428571428Q666.5694822888283 1216 599.7847411444142 1216Q533 1216 483.8282051282051 1187.4571428571428Q434.65641025641025 1158.9142857142856 408.3282051282051 1106.4571428571428Q382 1054 382 983V458Q382 387.04405286343615 408.5 334.0220264317181Q435 281 484.0 252.5Q533 224 599.7847411444142 224Q666.5694822888283 224 715.8814713896458 252.71904761904761Q765.1934604904632 281.43809523809523 791.5967302452316 334.2190476190476Q818 387 818 458Z" transform="translate(129.425 203.384) scale(0.004700 -0.004700)"/><path d="M143 1440H423L936 308H825V1440H1057V0H808L295 1132H375V0H143Z" transform="translate(135.765 203.384) scale(0.004700 -0.004700)"/><path d="M403 0 69 1440H352L624 180H592L864 1440H1131L797 0Z" transform="translate(142.105 203.384) scale(0.004700 -0.004700)"/><path d="M1026 1440V1197H420L450 1227V213L420 243H1046V0H183V1440ZM926 863V620H312V863Z" transform="translate(148.445 203.384) scale(0.004700 -0.004700)"/><path d="M177 1440H654Q777.3030303030303 1440 872.1515151515151 1388.0Q967 1336 1019.5 1241.5Q1072 1147 1072 1024Q1072 901 1019.5 807.5Q967 714 872.1515151515151 662.0Q777.3030303030303 610 654 610H317V852H625Q677.556886227545 852 716.7784431137725 873.0Q756 894 777.0 933.077380952381Q798 972.1547619047619 798 1024Q798 1076.556886227545 777.0 1115.7784431137725Q756 1155 716.7784431137725 1176.0Q677.556886227545 1197 625 1197H415L445 1227V0H177ZM1107 0H816L545 731H809Z" transform="translate(154.785 203.384) scale(0.004700 -0.004700)"/><path d="M600 202Q664 202 712.0 227.0Q760 252 786.5 297.5Q813 343 813 403Q813 468 789.0 511.0Q765 554 709.5 583.5Q654 613 555 635Q346 678 248.0 781.0Q150 884 150 1045Q150 1166 207.0 1261.5Q264 1357 366.5 1411.0Q469 1465 600 1465Q730 1465 831.0 1412.5Q932 1360 989.5 1264.5Q1047 1169 1050 1046H795Q792 1106 767.5 1149.0Q743 1192 700.0 1215.0Q657 1238 600 1238Q545 1238 501.0 1215.0Q457 1192 432.0 1151.5Q407 1111 407 1062Q407 1011 428.5 975.5Q450 940 502.0 914.5Q554 889 646 869Q798 837 892.0 778.5Q986 720 1029.0 633.5Q1072 547 1072 427Q1072 295 1013.5 192.5Q955 90 847.5 32.5Q740 -25 600 -25Q454 -25 348.0 33.0Q242 91 185.5 199.0Q129 307 128 454H384Q385 326 441.5 264.0Q498 202 600 202Z" transform="translate(161.125 203.384) scale(0.004700 -0.004700)"/><path d="M797 1440 1131 0H848L576 1260H608L336 0H69L403 1440ZM851 602 900 359H295L344 602Z" transform="translate(167.465 203.384) scale(0.004700 -0.004700)"/><path d="M735 0H467V1235L505 1197H114V1440H1086V1197H695L735 1235Z" transform="translate(173.805 203.384) scale(0.004700 -0.004700)"/><path d="M1006 1197H194V1440H1006ZM734 100H466V1340H734ZM1006 0H194V243H1006Z" transform="translate(180.145 203.384) scale(0.004700 -0.004700)"/><path d="M114 461V979Q114 1119.2742857142857 175.5 1229.6371428571429Q237 1340 347.7274590163935 1402.5Q458.4549180327869 1465 600.2274590163935 1465Q742 1465 852.5 1402.5Q963 1340 1024.5 1229.6371428571429Q1086 1119.2742857142857 1086 979V461Q1086 320.7257142857143 1024.5 210.36285714285714Q963 100 852.2725409836066 37.5Q741.5450819672132 -25 599.7725409836065 -25Q458 -25 347.5 37.5Q237 100 175.5 210.36285714285714Q114 320.7257142857143 114 461ZM818 458V983Q818 1054 791.5967302452316 1106.4571428571428Q765.1934604904632 1158.9142857142856 715.8814713896458 1187.4571428571428Q666.5694822888283 1216 599.7847411444142 1216Q533 1216 483.8282051282051 1187.4571428571428Q434.65641025641025 1158.9142857142856 408.3282051282051 1106.4571428571428Q382 1054 382 983V458Q382 387.04405286343615 408.5 334.0220264317181Q435 281 484.0 252.5Q533 224 599.7847411444142 224Q666.5694822888283 224 715.8814713896458 252.71904761904761Q765.1934604904632 281.43809523809523 791.5967302452316 334.2190476190476Q818 387 818 458Z" transform="translate(186.485 203.384) scale(0.004700 -0.004700)"/><path d="M143 1440H423L936 308H825V1440H1057V0H808L295 1132H375V0H143Z" transform="translate(192.825 203.384) scale(0.004700 -0.004700)"/><path d="" transform="translate(199.165 203.384) scale(0.004700 -0.004700)"/><path d="" transform="translate(205.505 203.384) scale(0.004700 -0.004700)"/><path d="M768 1074 803 1016H97L326 1245H1104V467L875 238V944L932 910L425 404L262 566Z" transform="translate(211.845 203.384) scale(0.004700 -0.004700)"/></g><circle cx="784" cy="126" r="122" fill="none" stroke="#645F51" stroke-width="1"/><circle cx="784" cy="126" r="84" fill="none" stroke="#645F51" stroke-width="1"/><circle cx="784" cy="126" r="47" fill="none" stroke="#645F51" stroke-width="1"/><line x1="662" y1="126" x2="859" y2="126" stroke="#645F51" stroke-width="1"/><line x1="784" y1="4" x2="784" y2="249" stroke="#645F51" stroke-width="1"/><g fill="#CEC6B1"><path d="M1091 495H390L433 609H1048ZM1625 90V0H999V90Q1071 95 1110.0 113.5Q1149 132 1157.0 171.0Q1165 210 1137 277L713 1284H782L358 277Q330 211 338.0 171.5Q346 132 385.5 113.5Q425 95 497 90V0H20V90Q72 94 103.5 107.0Q135 120 156.0 145.0Q177 170 196 213L760 1510H885L1449 213Q1468 170 1489.0 145.0Q1510 120 1541.5 107.0Q1573 94 1625 90Z" transform="translate(761.793 146.385) scale(0.027000 -0.027000)"/></g></svg>